# xmcd CD database file
#
# Track frame offsets:
#	151
#	26860
#	47718
#	53582
#	72084
#	82408
#	88010
#	116296
#	123649
#	146304
#	195939
#	226501
#	296186
#	305551
#
# Disc length: 4312 seconds
#
# Revision: 0
# Processed by: cddbd v1.5.2PL0 Copyright (c) Steve Scherf et al.
# Submitted via: CDex 1.70beta2
#
DISCID=c010d60e
DTITLE=Alliage Quartett - 45. Bad Hersfelder Festspielkonzerte 2005
DYEAR=2005
DGENRE=Saxophone Quartet
TTITLE0=Felix Mendelssohn Bartholdy (Arr. Hendrik Schnöke) - Ein Sommernachtstraum 1. Ouvertüre
TTITLE1=2. Scherzo
TTITLE2=3. Elfenmarsch
TTITLE3=4. Lied
TTITLE4=5. Intemezzo
TTITLE5=6. Noturno
TTITLE6=7. Marcia funèbre
TTITLE7=8. Rüpeltanz
TTITLE8=9. Finale
TTITLE9=Erkki-Sven Tüür - Lamentatio für vier Saxophone
TTITLE10=Germaine Tailleferre - Sérémade a-Moll
TTITLE11=Jun Nagao - Rhapsodie sur Carmen von George Bizet
TTITLE12=Leonard Bernstein - America (aus  'Westside Story')
TTITLE13=George Gershwin - Summertime (aus 'Porgy and Bess')
EXTD=YEAR: 2005
EXTT0=
EXTT1=
EXTT2=
EXTT3=
EXTT4=
EXTT5=
EXTT6=
EXTT7=
EXTT8=
EXTT9=
EXTT10=
EXTT11=
EXTT12=
EXTT13=
PLAYORDER=
